<svg xmlns="http://www.w3.org/2000/svg" width="21.781" height="21.75"><defs><filter id="a" x="230.125" y="860.188" width="21.781" height="21.75" filterUnits="userSpaceOnUse"><feFlood result="flood" flood-color="#111"/><feComposite result="composite" operator="in" in2="SourceGraphic"/><feBlend result="blend" in2="SourceGraphic"/></filter></defs><path data-name="Read More Icon" d="M241.023 860.179a10.887 10.887 0 1 0 10.887 10.887 10.887 10.887 0 0 0-10.887-10.887zm0 20.14a9.253 9.253 0 1 1 9.254-9.253 9.253 9.253 0 0 1-9.254 9.253zm4.11-10.515l-3.464-3.464a.816.816 0 1 0-1.154 1.155l2.485 2.482h-5.966a.364.364 0 0 0-.362.363v1.452a.364.364 0 0 0 .362.363H243l-2.482 2.482a.816.816 0 1 0 1.154 1.155l3.464-3.465a.817.817 0 0 0 .225-.422.358.358 0 0 0 .02-.113v-1.452a.347.347 0 0 0-.02-.112.815.815 0 0 0-.228-.428z" transform="translate(-230.125 -860.188)" fill="#fff" fill-rule="evenodd" filter="url(#a)"/></svg>